# xmcd
# 
# Track frame offsets:
#     150
#     23950
#     45220
#     62557
#     81995
#     102247
#     124380
#     151090
#     172112
#     194327
#     215182
#     231202
#     250357
#     268820
#     286050
# 
# Disc length: 4088
# 
# Revision: 2
# Processed by: cddbd v1.5.2PL0 Copyright (c) Steve Scherf et al.
# Submitted via: fre:ac v1.0.17
# 
DISCID=d80ff60f
DTITLE=費玉清 - 脈脈聲情
DYEAR=2006
DGENRE=Vocal
TTITLE0=情深往事
TTITLE1=你是我永遠的鄉愁
TTITLE2=一生的朋友
TTITLE3=情關
TTITLE4=紅塵來去一場夢
TTITLE5=多情總為無情傷
TTITLE6=直到永遠
TTITLE7=負心
TTITLE8=妳我曾經走過紀元
TTITLE9=相思比夢長
TTITLE10=來不及把夢留給你
TTITLE11=冬之夜
TTITLE12=新鴛鴦蝴蝶夢
TTITLE13=花心
TTITLE14=昨日再見
EXTD=YEAR: 2006
EXTT0=
EXTT1=
EXTT2=
EXTT3=
EXTT4=
EXTT5=
EXTT6=
EXTT7=
EXTT8=
EXTT9=
EXTT10=
EXTT11=
EXTT12=
EXTT13=
EXTT14=
PLAYORDER=
